<svg xmlns="http://www.w3.org/2000/svg" viewBox="0 0 360 260">
  <defs>
    <linearGradient id="boxTop" x1="0%" y1="0%" x2="100%" y2="100%">
      <stop offset="0%" stop-color="#f5ae42"/>
      <stop offset="100%" stop-color="#f39a2d"/>
    </linearGradient>
    <linearGradient id="boxFront" x1="0%" y1="0%" x2="0%" y2="100%">
      <stop offset="0%" stop-color="#f39a2d"/>
      <stop offset="100%" stop-color="#d97717"/>
    </linearGradient>
    <linearGradient id="navyFade" x1="0%" y1="0%" x2="0%" y2="100%">
      <stop offset="0%" stop-color="#2c4776"/>
      <stop offset="100%" stop-color="#1e365c"/>
    </linearGradient>
  </defs>
  <rect fill="none" width="360" height="260" rx="24"/>
  <g transform="translate(40 30)">
    <path d="M140 75 60 110 140 145 220 110Z" fill="url(#boxTop)"/>
    <path d="M60 110V190l80 35V145z" fill="url(#boxFront)"/>
    <path d="M220 110v80l-80 35V145z" fill="#cb6d17"/>
    <path d="M140 60c-18-40-35-44-48-32-15 14-7 41 12 53" fill="none" stroke="url(#navyFade)" stroke-width="8" stroke-linecap="round"/>
    <path d="M140 60c10-32 28-58 45-58 15 0 24 16 20 34-3 14-15 27-27 35" fill="none" stroke="url(#navyFade)" stroke-width="8" stroke-linecap="round"/>
    <path d="M140 65c16-10 34-12 48 5 16 20 34 22 49 12" fill="none" stroke="url(#navyFade)" stroke-width="8" stroke-linecap="round"/>
    <path d="M92 33h20v24H92z" fill="#1e365c" rx="4" ry="4"/>
    <rect x="98" y="49" width="8" height="5" rx="1" fill="#fff"/>
    <path d="M195 -7a20 20 0 0 0-20 20c0 8 4 14 9 18l-5 16h32l-5-16a20 20 0 0 0 9-18c0-11-9-20-20-20Z" fill="#1e365c"/>
    <circle cx="195" cy="13" r="8" fill="#fff"/>
    <path d="M244 68a28 28 0 0 0-27 21l-4 18c-2 8 2 16 9 19l5-18a12 12 0 0 1 23 0l5 18c7-3 11-11 9-19l-5-18a28 28 0 0 0-15-19Z" fill="#1e365c"/>
    <path d="M140 64v81" stroke="#1e365c" stroke-width="10" stroke-linecap="round"/>
  </g>
  <g transform="translate(240 86)" fill="#1e365c" font-family="Segoe UI, Helvetica, Arial, sans-serif" font-weight="700" text-anchor="start">
    <text font-size="44" x="0" y="42">NEEDS</text>
    <text font-size="44" x="0" y="90">BOXES</text>
    <text font-size="20" x="0" y="122">صندوق الاحتياجات</text>
    <text font-size="18" x="0" y="150" fill="#d97717">اكتشف احتياجك في كل صندوق</text>
  </g>
</svg>
