<svg xmlns="http://www.w3.org/2000/svg" viewBox="0 0 64 64">
  <defs>
    <linearGradient id="betoGrad" x1="0%" y1="0%" x2="100%" y2="100%">
      <stop offset="0%" stop-color="#0D2C6C"/>
      <stop offset="100%" stop-color="#FF9E1B"/>
    </linearGradient>
  </defs>
  <rect width="64" height="64" rx="14" fill="#11224E"/>
  <path d="M20 16h16c6.6 0 12 5.4 12 12 0 4.2-2.2 7.9-5.6 10 3.8 1.9 6.6 5.8 6.6 10.3 0 6.6-5.4 11.7-12 11.7H20z" fill="url(#betoGrad)"/>
  <path d="M26 24h8c2.8 0 5 2.2 5 5s-2.2 5-5 5h-8zm0 17h9c2.8 0 5 2.2 5 5s-2.2 5-5 5h-9z" fill="#ffffff"/>
</svg>
